# File created by Blade
# Date/Time:  Wed Apr 08 14:55:03 2015
# Frame Rate: 120.000 fps
#------------------------------------------------------
:FULLY-SPECIFIED
:DEGREES
2651
root 2.029111 32.831430 -9.818265 8.772252 2.408708 -1.370749
Spine 8.595417 -5.276528 -1.707585
Head 50.707392 -6.528044 -3.405619
LeftShoulder -25.624391 42.787159 19.309316
LeftArm 59.861928 -56.577413 -60.796400
LeftForeArm 12.094605 -0.000000 -1.601056
LeftHand 2.881651 -0.000000 6.752771
LeftHandThumb1 -26.253704 0.000000 33.147579
RightShoulder -11.080830 -2.256595 -33.243691
RightArm 13.445218 12.464224 37.568838
RightForeArm -8.446677 -0.000000 -1.801792
RightHand 1.228011 -0.000000 -0.190697
RightHandThumb1 -24.326973 -0.000000 -32.862282
LeftUpLeg -6.104985 -4.788868 2.324548
LeftLeg -4.186811 -0.000000 0.000000
LeftFoot -2.255428 8.027767 -17.740177
LeftToeBase -6.098928 -0.000000 0.000000
RightUpLeg -7.917057 -0.876060 1.509698
RightLeg -2.296795 -0.000000 0.000000
RightFoot -2.662435 -7.642782 8.122089
RightToeBase -2.332640 -0.000000 0.000000
2652
root 2.036085 32.830584 -9.850624 8.723352 2.463917 -1.383757
Spine 8.868809 -5.315695 -1.690405
Head 50.741002 -6.491121 -3.396406
LeftShoulder -25.680343 42.876673 19.245069
LeftArm 60.046039 -56.501050 -60.931901
LeftForeArm 12.050510 -0.000000 -1.569197
LeftHand 2.951243 -0.000000 6.892232
LeftHandThumb1 -26.253704 0.000000 33.147579
RightShoulder -11.067349 -2.312350 -33.269520
RightArm 13.442979 12.529983 37.635650
RightForeArm -8.363927 -0.000000 -1.780316
RightHand 1.374229 -0.000000 -0.205442
RightHandThumb1 -24.326973 -0.000000 -32.862282
LeftUpLeg -6.119666 -4.762441 2.315610
LeftLeg -4.193076 -0.000000 0.000000
LeftFoot -2.202534 8.012141 -17.697742
LeftToeBase -6.076757 -0.000000 0.000000
RightUpLeg -7.932916 -0.887015 1.507313
RightLeg -2.277397 -0.000000 0.000000
RightFoot -2.616215 -7.671940 8.145013
RightToeBase -2.334930 -0.000000 0.000000
2653
root 2.044157 32.830498 -9.884119 8.697192 2.516805 -1.387503
Spine 9.116429 -5.354796 -1.677289
Head 50.774183 -6.432159 -3.385101
LeftShoulder -25.663236 42.890589 19.258432
LeftArm 60.127543 -56.434894 -61.018195
LeftForeArm 12.173571 -0.000000 -1.657628
LeftHand 3.553965 -0.000000 6.761175
LeftHandThumb1 -26.253704 0.000000 33.147579
RightShoulder -11.073577 -2.320276 -33.283055
RightArm 13.448387 12.537707 37.670433
RightForeArm -8.320967 -0.000000 -1.777251
RightHand 1.376070 0.000000 -0.203287
RightHandThumb1 -24.326973 -0.000000 -32.862282
LeftUpLeg -6.177209 -4.751296 2.307857
LeftLeg -4.155915 -0.000000 0.000000
LeftFoot -2.170154 7.961105 -17.732507
LeftToeBase -5.994174 -0.000000 0.000000
RightUpLeg -7.974102 -0.901515 1.496342
RightLeg -2.254559 -0.000000 0.000000
RightFoot -2.581796 -7.711275 8.171616
RightToeBase -2.325263 -0.000000 0.000000
2654
root 2.052076 32.830220 -9.916891 8.659674 2.563490 -1.387297
Spine 9.390436 -5.388951 -1.674135
Head 50.775562 -6.395123 -3.351153
LeftShoulder -25.665107 42.856958 19.280137
LeftArm 60.199964 -56.332569 -61.122305
LeftForeArm 12.088498 -0.000000 -1.635403
LeftHand 3.683580 -0.000000 6.953462
LeftHandThumb1 -26.253704 0.000000 33.147579
RightShoulder -11.104779 -2.289526 -33.288985
RightArm 13.435059 12.620204 37.715860
RightForeArm -8.223829 -0.000000 -1.710891
RightHand 1.361725 -0.000000 -0.177889
RightHandThumb1 -24.326973 -0.000000 -32.862282
LeftUpLeg -6.216507 -4.704376 2.287051
LeftLeg -4.128506 -0.000000 0.000000
LeftFoot -2.121037 7.896874 -17.727648
LeftToeBase -5.997017 -0.000000 0.000000
RightUpLeg -8.025534 -0.953003 1.489377
RightLeg -2.184061 -0.000000 0.000000
RightFoot -2.578010 -7.702875 8.123860
RightToeBase -2.274983 -0.000000 0.000000
2655
root 2.060470 32.830235 -9.950393 8.620878 2.620170 -1.389299
Spine 9.668248 -5.419834 -1.663437
Head 50.769194 -6.379590 -3.336539
LeftShoulder -25.673242 42.901627 19.262226
LeftArm 60.377152 -56.288105 -61.317323
LeftForeArm 12.031238 0.000000 -1.563944
LeftHand 3.746354 -0.000000 6.802383
LeftHandThumb1 -26.253704 0.000000 33.147579
RightShoulder -11.145233 -2.278802 -33.286075
RightArm 13.443013 12.669090 37.743895
RightForeArm -8.160352 0.000000 -1.645452
RightHand 1.259881 -0.000000 -0.107838
RightHandThumb1 -24.326973 -0.000000 -32.862282
LeftUpLeg -6.265489 -4.677609 2.269361
LeftLeg -4.086348 -0.000000 0.000000
LeftFoot -2.066756 7.845533 -17.705596
LeftToeBase -6.002473 -0.000000 0.000000
RightUpLeg -8.065827 -0.967130 1.476598
RightLeg -2.137075 -0.000000 0.000000
RightFoot -2.556361 -7.749996 8.152343
RightToeBase -2.288377 -0.000000 0.000000
